<svg id="Ebene_1" data-name="Ebene 1" xmlns="http://www.w3.org/2000/svg" viewBox="0 0 394.67 394.67"><defs><style>.cls-1{fill:#532f22;}.cls-2{fill:#fff;}</style></defs><circle class="cls-1" cx="302.05" cy="437" r="197.34" transform="translate(-325.25 101.91) rotate(-45)"/><path class="cls-2" d="M294.64,569.2c-34.3,0-61.74-10.69-81.53-31.76C175.05,496.91,178.59,433,178.76,430.3a3.52,3.52,0,0,1,3.51-3.31H398.42a3.53,3.53,0,0,1,3.53,3.39c.11,2.86,2.3,70.6-36.23,110.67C347.76,559.73,323.85,569.2,294.64,569.2ZM185.69,434c-.16,13.52,1.35,65.38,32.58,98.6,18.41,19.58,44.11,29.51,76.37,29.51,27.2,0,49.4-8.73,66-26,31.73-33,34.22-88,34.31-102.15Z" transform="translate(-104.72 -239.66)"/><path class="cls-2" d="M294.64,569.2c-34.3,0-61.74-10.69-81.53-31.76C175.05,496.91,178.59,433,178.76,430.3a3.52,3.52,0,0,1,3.51-3.31H398.42a3.53,3.53,0,0,1,3.53,3.39c.11,2.86,2.3,70.6-36.23,110.67C347.76,559.73,323.85,569.2,294.64,569.2ZM185.69,434c-.16,13.52,1.35,65.38,32.58,98.6,18.41,19.58,44.11,29.51,76.37,29.51,27.2,0,49.4-8.73,66-26,31.73-33,34.22-88,34.31-102.15Z" transform="translate(-104.72 -239.66)"/><path class="cls-2" d="M388.67,498.1a3.53,3.53,0,0,1,0-7.05c15.1,0,26.9-4.57,35.06-13.58C436.5,463.37,437.3,442,437.11,434H398.42a3.53,3.53,0,0,1,0-7.05h42a3.53,3.53,0,0,1,3.51,3.18c.13,1.3,3,32.18-15,52C419.4,492.75,405.85,498.1,388.67,498.1Z" transform="translate(-104.72 -239.66)"/><path class="cls-2" d="M269.34,409.52a3.48,3.48,0,0,1-2.58-1.12,3.52,3.52,0,0,1,.18-5c15.37-14.33,23.56-28.54,21.9-38-.92-5.25-4.78-9.25-11.81-12.25-14.62-6.24-23.15-16-22.8-26.24.28-8,5.94-19.38,31.37-28.23a3.52,3.52,0,1,1,2.31,6.65c-16.65,5.8-26.36,13.75-26.63,21.82-.24,7.06,6.85,14.54,18.52,19.52,9.26,3.95,14.63,9.84,16,17.51,3,17.07-15.82,36.73-24,44.4A3.52,3.52,0,0,1,269.34,409.52Z" transform="translate(-104.72 -239.66)"/><path class="cls-2" d="M316,409.52a3.48,3.48,0,0,1-2.58-1.12,3.52,3.52,0,0,1,.17-5c15.38-14.33,23.56-28.54,21.9-38-.92-5.25-4.78-9.25-11.8-12.25-14.63-6.24-23.15-16-22.8-26.24.27-8,5.94-19.38,31.36-28.23a3.52,3.52,0,1,1,2.32,6.65c-16.65,5.8-26.36,13.75-26.64,21.82-.24,7.06,6.86,14.54,18.52,19.52,9.26,3.95,14.64,9.84,16,17.51,3,17.06-15.81,36.73-24,44.4A3.52,3.52,0,0,1,316,409.52Z" transform="translate(-104.72 -239.66)"/><path class="cls-2" d="M208.77,454.52s-1.68,89.67,84,89.67c78,0,79.33-89.67,79.33-89.67Zm111.6,72.35a3.09,3.09,0,0,1-1.44.35,3.18,3.18,0,0,1-1.45-6c14.23-7.26,30.09-29.29,30.09-49.3a3.18,3.18,0,1,1,6.35,0C353.92,494.55,336.57,518.61,320.37,526.87Z" transform="translate(-104.72 -239.66)"/></svg>